<svg xmlns="http://www.w3.org/2000/svg" width="655" height="475" viewBox="0 0 655 475"><rect width="100%" height="100%" fill="#DDDDDD"/><path fill="#999999" d="m171.71 205.72-18.66 22.84-2.18 2.69q1.83-.91 3.94-1.41 2.11-.5 4.54-.5 3.57 0 6.94 1.17 3.37 1.18 5.94 3.55 2.57 2.37 4.13 5.89 1.57 3.53 1.57 8.22 0 4.4-1.61 8.25-1.61 3.85-4.53 6.72-2.91 2.87-7.02 4.52-4.11 1.66-9.07 1.66-5.05 0-9.05-1.61-4-1.61-6.83-4.51-2.83-2.89-4.33-6.96-1.5-4.06-1.5-9.02 0-4.44 1.81-9.12 1.8-4.67 5.59-9.72l15.01-20.14q.78-1.04 2.28-1.78 1.5-.74 3.46-.74h9.57Zm-16.23 54.81q2.57 0 4.72-.87t3.7-2.44q1.54-1.56 2.41-3.67.87-2.11.87-4.59 0-2.7-.82-4.85-.83-2.16-2.35-3.66t-3.66-2.28q-2.13-.78-4.69-.78-2.57 0-4.66.87-2.09.87-3.57 2.41-1.47 1.55-2.3 3.66-.83 2.1-.83 4.54 0 2.61.72 4.76.72 2.16 2.13 3.68 1.42 1.52 3.5 2.37 2.09.85 4.83.85Zm45.2-45.07-2.22 13.1q2.09-.44 4-.63 1.92-.2 3.7-.2 4.96 0 8.74 1.48 3.79 1.48 6.35 4.09 2.57 2.61 3.88 6.11 1.3 3.5 1.3 7.55 0 5-1.76 9.13-1.76 4.13-4.9 7.07-3.13 2.94-7.41 4.55-4.29 1.61-9.33 1.61-2.96 0-5.61-.61-2.66-.61-4.98-1.63-2.33-1.03-4.31-2.35-1.98-1.33-3.55-2.81l3.31-4.57q1.04-1.48 2.74-1.48 1.09 0 2.22.7 1.13.7 2.59 1.52 1.45.83 3.43 1.53 1.98.69 4.77.69 2.95 0 5.22-.96 2.26-.95 3.76-2.67t2.26-4.09q.76-2.37.76-5.15 0-5.14-2.98-8.03-2.98-2.89-8.81-2.89-4.48 0-9.17 1.65l-6.7-1.91 5.22-30.54h31.06v4.57q0 2.3-1.44 3.74-1.44 1.43-4.87 1.43h-17.27Zm50.46 0-2.22 13.1q2.09-.44 4-.63 1.92-.2 3.7-.2 4.96 0 8.74 1.48 3.79 1.48 6.35 4.09 2.57 2.61 3.88 6.11 1.3 3.5 1.3 7.55 0 5-1.76 9.13-1.76 4.13-4.9 7.07-3.13 2.94-7.41 4.55-4.29 1.61-9.33 1.61-2.96 0-5.61-.61-2.66-.61-4.98-1.63-2.33-1.03-4.31-2.35-1.98-1.33-3.55-2.81l3.31-4.57q1.04-1.48 2.74-1.48 1.09 0 2.22.7 1.13.7 2.59 1.52 1.45.83 3.43 1.53 1.98.69 4.77.69 2.95 0 5.22-.96 2.26-.95 3.76-2.67t2.26-4.09q.76-2.37.76-5.15 0-5.14-2.98-8.03-2.98-2.89-8.81-2.89-4.48 0-9.17 1.65l-6.7-1.91 5.22-30.54h31.06v4.57q0 2.3-1.44 3.74-1.44 1.43-4.87 1.43h-17.27Zm97.48 38.76-5.7 5.61-14.74-14.74-14.88 14.83-5.7-5.61 14.88-14.92-14.18-14.18 5.65-5.66 14.18 14.18 14.1-14.09 5.74 5.65-14.14 14.14 14.79 14.79Zm37.67-9.31h19.14v-20.57q0-2.92.39-6.44l-19.53 27.01Zm28.5 0h7.91v6.22q0 .87-.56 1.5-.57.63-1.61.63h-5.74v15.36h-9.36v-15.36H378.9q-1.09 0-1.92-.67-.82-.67-1.04-1.67l-1.13-5.44 29.8-39.8h10.18v39.23Zm14.18-39.19h43.45v4.65q0 2.09-.43 3.37-.44 1.29-.87 2.16l-23.84 49.07q-.74 1.52-2.09 2.58-1.35 1.07-3.61 1.07h-7.78l24.31-48.07q.83-1.48 1.63-2.72.81-1.24 1.81-2.37h-30.1q-1 0-1.74-.74t-.74-1.74v-7.26Zm66.29 9.74-2.22 13.1q2.09-.44 4-.63 1.92-.2 3.7-.2 4.96 0 8.75 1.48 3.78 1.48 6.35 4.09 2.56 2.61 3.87 6.11 1.3 3.5 1.3 7.55 0 5-1.76 9.13-1.76 4.13-4.89 7.07-3.13 2.94-7.42 4.55-4.28 1.61-9.33 1.61-2.96 0-5.61-.61-2.66-.61-4.98-1.63-2.33-1.03-4.31-2.35-1.98-1.33-3.54-2.81l3.3-4.57q1.05-1.48 2.74-1.48 1.09 0 2.22.7 1.13.7 2.59 1.52 1.46.83 3.44 1.53 1.97.69 4.76.69 2.96 0 5.22-.96 2.26-.95 3.76-2.67t2.26-4.09q.76-2.37.76-5.15 0-5.14-2.98-8.03-2.97-2.89-8.8-2.89-4.48 0-9.18 1.65l-6.7-1.91 5.22-30.54h31.06v4.57q0 2.3-1.44 3.74-1.43 1.43-4.87 1.43h-17.27Z"/></svg>